<svg width="255" height="44" viewBox="0 0 255 44" fill="none" xmlns="http://www.w3.org/2000/svg">
<path d="M64 18C65.6086 18 67.6486 18.0767 69.5234 18.1689L69.918 18.1982C73.9587 18.5983 76.9998 22.0297 77 26.085V29.9863C77 34.1289 73.8164 37.6484 69.5947 37.8506C67.8471 37.9343 65.8759 38 64 38C62.5931 38 61.1326 37.9631 59.7529 37.9092L58.4053 37.8506C54.1836 37.6484 51 34.1289 51 29.9863V26.0693C51 21.8931 54.2277 18.3715 58.46 18.1641C60.2987 18.074 62.3172 18 64 18Z" stroke="black" stroke-width="4"/>
<path d="M63.5 16C66.3563 16 70.0971 16.1516 73.623 16.3398C77.1831 16.53 80 19.5081 80 23.1865V32.9551C79.9998 36.6039 77.241 39.5171 73.7715 39.6982C70.5304 39.8675 66.9039 40 63.5 40C60.0961 40 56.4696 39.8675 53.2285 39.6982C49.759 39.5171 47.0002 36.6039 47 32.9551V23.1543C47 19.4822 49.8036 16.5186 53.3428 16.3301C56.7878 16.1468 60.4929 16 63.5 16Z" stroke="black" stroke-width="8"/>
<path d="M107 18C108.609 18 110.649 18.0767 112.523 18.1689L112.918 18.1982C116.959 18.5983 120 22.0297 120 26.085V29.9863C120 34.1289 116.816 37.6484 112.595 37.8506C110.847 37.9343 108.876 38 107 38C105.593 38 104.133 37.9631 102.753 37.9092L101.405 37.8506C97.1836 37.6484 94 34.1289 94 29.9863V26.0693C94 21.8931 97.2277 18.3715 101.46 18.1641C103.299 18.074 105.317 18 107 18Z" stroke="black" stroke-width="4"/>
<path d="M106.5 16C109.356 16 113.097 16.1516 116.623 16.3398C120.183 16.53 123 19.5081 123 23.1865V32.9551C123 36.6039 120.241 39.5171 116.771 39.6982C113.53 39.8675 109.904 40 106.5 40C103.096 40 99.4696 39.8675 96.2285 39.6982C92.759 39.5171 90.0002 36.6039 90 32.9551V23.1543C90 19.4822 92.8036 16.5186 96.3428 16.3301C99.7878 16.1468 103.493 16 106.5 16Z" stroke="black" stroke-width="8"/>
<path d="M192 18C193.609 18 195.649 18.0767 197.523 18.1689L197.918 18.1982C201.959 18.5983 205 22.0297 205 26.085V29.9863C205 34.1289 201.816 37.6484 197.595 37.8506C195.847 37.9343 193.876 38 192 38C190.593 38 189.133 37.9631 187.753 37.9092L186.405 37.8506C182.184 37.6484 179 34.1289 179 29.9863V26.0693C179 21.8931 182.228 18.3715 186.46 18.1641C188.299 18.074 190.317 18 192 18Z" stroke="black" stroke-width="4"/>
<path d="M191.5 16C194.356 16 198.097 16.1516 201.623 16.3398C205.183 16.53 208 19.5081 208 23.1865V32.9551C208 36.6039 205.241 39.5171 201.771 39.6982C198.53 39.8675 194.904 40 191.5 40C188.096 40 184.47 39.8675 181.229 39.6982C177.759 39.5171 175 36.6039 175 32.9551V23.1543C175 19.4822 177.804 16.5186 181.343 16.3301C184.788 16.1468 188.493 16 191.5 16Z" stroke="black" stroke-width="8"/>
<path d="M235 18C236.609 18 238.649 18.0767 240.523 18.1689L240.918 18.1982C244.959 18.5983 248 22.0297 248 26.085V29.9863C248 34.1289 244.816 37.6484 240.595 37.8506C238.847 37.9343 236.876 38 235 38C233.593 38 232.133 37.9631 230.753 37.9092L229.405 37.8506C225.184 37.6484 222 34.1289 222 29.9863V26.0693C222 21.8931 225.228 18.3715 229.46 18.1641C231.299 18.074 233.317 18 235 18Z" stroke="black" stroke-width="4"/>
<path d="M234.5 16C237.356 16 241.097 16.1516 244.623 16.3398C248.183 16.53 251 19.5081 251 23.1865V32.9551C251 36.6039 248.241 39.5171 244.771 39.6982C241.53 39.8675 237.904 40 234.5 40C231.096 40 227.47 39.8675 224.229 39.6982C220.759 39.5171 218 36.6039 218 32.9551V23.1543C218 19.4822 220.804 16.5186 224.343 16.3301C227.788 16.1468 231.493 16 234.5 16Z" stroke="black" stroke-width="8"/>
<path d="M21 18C22.6086 18 24.6486 18.0767 26.5234 18.1689L26.918 18.1982C30.9587 18.5983 33.9998 22.0297 34 26.085V29.9863C34 34.1289 30.8164 37.6484 26.5947 37.8506C24.8471 37.9343 22.8759 38 21 38C19.5931 38 18.1326 37.9631 16.7529 37.9092L15.4053 37.8506C11.1836 37.6484 8 34.1289 8 29.9863V26.0693C8 21.8931 11.2277 18.3715 15.46 18.1641C17.2987 18.074 19.3172 18 21 18Z" stroke="black" stroke-width="4"/>
<path d="M20.5 16C23.3563 16 27.0971 16.1516 30.623 16.3398C34.1831 16.53 37 19.5081 37 23.1865V32.9551C36.9998 36.6039 34.241 39.5171 30.7715 39.6982C27.5304 39.8675 23.9039 40 20.5 40C17.0961 40 13.4696 39.8675 10.2285 39.6982C6.75898 39.5171 4.00022 36.6039 4 32.9551V23.1543C4 19.4822 6.8036 16.5186 10.3428 16.3301C13.7878 16.1468 17.4929 16 20.5 16Z" stroke="black" stroke-width="8"/>
<path d="M0 1C0 0.447716 0.447715 0 1 0H9C9.55228 0 10 0.447715 10 1V21C10 23.7614 7.76142 26 5 26H0V1Z" fill="#0B0B0B"/>
<path d="M164.5 41C164.5 41 164.5 30.4254 164.5 23.2157C164.5 16.8469 154.324 16.0059 148.746 16.0059C142.785 16.0059 133.5 16.9672 133.5 19.3705C133.5 25.6499 133.5 41 133.5 41" stroke="black" stroke-width="9" stroke-linejoin="round"/>
<path d="M137 31.3845C137 31.3845 136.5 24.1731 138 22.2498C140.683 18.8099 146.5 19.3652 146.5 19.3652" stroke="black" stroke-width="2" stroke-linejoin="round"/>
<path d="M161 31C161 31 161.27 23.9829 159.5 22C157 19.1996 148 19.0521 148 19.0521" stroke="black" stroke-width="2" stroke-linejoin="round"/>
<rect x="160" y="33" width="9" height="11" rx="1" fill="black"/>
<rect x="129" width="9" height="44" rx="1" fill="black"/>
</svg>
