<svg width="446" height="69" viewBox="0 0 446 69" fill="none" xmlns="http://www.w3.org/2000/svg">
<path d="M35.5 55.5C38.3667 55.5 40.6667 55.3667 42.4 55.1C44.2 54.8333 45.5667 54.3333 46.5 53.6C47.5 52.8667 48.1333 51.8 48.4 50.4C48.7333 49 48.9 47.1333 48.9 44.8V42.9C48.9 40.6333 48.7333 38.8 48.4 37.4C48.0667 35.9333 47.4 34.8333 46.4 34.1C45.4667 33.3667 44.1333 32.8667 42.4 32.6C40.6667 32.3333 38.3667 32.2 35.5 32.2H32.2C29.2667 32.2 26.9333 32.3333 25.2 32.6C23.4667 32.8667 22.1 33.3667 21.1 34.1C20.1667 34.8333 19.5333 35.9333 19.2 37.4C18.9333 38.8 18.8 40.6333 18.8 42.9V44.8C18.8 47.1333 18.9667 49 19.3 50.4C19.6333 51.8 20.2667 52.8667 21.2 53.6C22.2 54.3333 23.5667 54.8333 25.3 55.1C27.0333 55.3667 29.3333 55.5 32.2 55.5H35.5ZM0.500001 6C0.500001 4.06666 0.900001 2.6 1.7 1.6C2.5 0.533332 3.86667 -7.15256e-07 5.8 -7.15256e-07H13.7C15.6333 -7.15256e-07 17 0.566665 17.8 1.7C18.6667 2.76666 19.1 4.26666 19.1 6.2V15.4C19.1 16.3333 19.2 17.1 19.4 17.7C19.6 18.2333 20 18.6667 20.6 19C21.2667 19.2667 22.1667 19.4667 23.3 19.6C24.4333 19.6667 25.9333 19.7 27.8 19.7H39.7C45.2333 19.7 49.8 19.9667 53.4 20.5C57 21.0333 59.8333 22.1333 61.9 23.8C64.0333 25.4 65.5 27.7333 66.3 30.8C67.1 33.8667 67.5 37.9 67.5 42.9V44.8C67.5 49.8 67.1 53.8667 66.3 57C65.5667 60.0667 64.1667 62.4333 62.1 64.1C60.0333 65.7667 57.1667 66.9 53.5 67.5C49.9 68.0333 45.2333 68.3 39.5 68.3H22.2C17.9333 68.3 14.4 67.8667 11.6 67C8.8 66.0667 6.56667 64.8333 4.9 63.3C3.3 61.7 2.16667 59.8667 1.5 57.8C0.833334 55.7333 0.500001 53.5333 0.500001 51.2V6ZM111.325 54.8C114.192 54.8 116.492 54.7 118.225 54.5C119.958 54.2333 121.292 53.7333 122.225 53C123.158 52.2 123.758 51.1 124.025 49.7C124.292 48.3 124.425 46.4333 124.425 44.1V43.6C124.425 41.2667 124.292 39.4 124.025 38C123.758 36.6 123.158 35.5333 122.225 34.8C121.292 34 119.958 33.5 118.225 33.3C116.492 33.0333 114.192 32.9 111.325 32.9H108.025C105.092 32.9 102.758 33.0333 101.025 33.3C99.3583 33.5 98.0583 34 97.125 34.8C96.1917 35.5333 95.5917 36.6 95.325 38C95.0583 39.4 94.925 41.2667 94.925 43.6V44.1C94.925 46.4333 95.0583 48.3 95.325 49.7C95.5917 51.1 96.1917 52.2 97.125 53C98.0583 53.7333 99.3583 54.2333 101.025 54.5C102.758 54.7 105.092 54.8 108.025 54.8H111.325ZM107.425 68.3C101.292 68.3 96.225 68.0333 92.225 67.5C88.2917 66.9 85.1583 65.7667 82.825 64.1C80.5583 62.3667 78.9583 59.9333 78.025 56.8C77.1583 53.6 76.725 49.3667 76.725 44.1V43.6C76.725 38.3333 77.1583 34.1333 78.025 31C78.9583 27.8667 80.5917 25.4667 82.925 23.8C85.2583 22.1333 88.3917 21.0333 92.325 20.5C96.2583 19.9667 101.292 19.7 107.425 19.7H111.925C118.058 19.7 123.092 19.9667 127.025 20.5C131.025 21.0333 134.158 22.1333 136.425 23.8C138.758 25.4667 140.358 27.8667 141.225 31C142.158 34.1333 142.625 38.3333 142.625 43.6V44.1C142.625 49.3667 142.158 53.6 141.225 56.8C140.358 59.9333 138.758 62.3667 136.425 64.1C134.158 65.7667 131.025 66.9 127.025 67.5C123.092 68.0333 118.058 68.3 111.925 68.3H107.425ZM186.423 54.8C189.289 54.8 191.589 54.7 193.323 54.5C195.056 54.2333 196.389 53.7333 197.323 53C198.256 52.2 198.856 51.1 199.123 49.7C199.389 48.3 199.523 46.4333 199.523 44.1V43.6C199.523 41.2667 199.389 39.4 199.123 38C198.856 36.6 198.256 35.5333 197.323 34.8C196.389 34 195.056 33.5 193.323 33.3C191.589 33.0333 189.289 32.9 186.423 32.9H183.123C180.189 32.9 177.856 33.0333 176.123 33.3C174.456 33.5 173.156 34 172.223 34.8C171.289 35.5333 170.689 36.6 170.423 38C170.156 39.4 170.023 41.2667 170.023 43.6V44.1C170.023 46.4333 170.156 48.3 170.423 49.7C170.689 51.1 171.289 52.2 172.223 53C173.156 53.7333 174.456 54.2333 176.123 54.5C177.856 54.7 180.189 54.8 183.123 54.8H186.423ZM182.523 68.3C176.389 68.3 171.323 68.0333 167.323 67.5C163.389 66.9 160.256 65.7667 157.923 64.1C155.656 62.3667 154.056 59.9333 153.123 56.8C152.256 53.6 151.823 49.3667 151.823 44.1V43.6C151.823 38.3333 152.256 34.1333 153.123 31C154.056 27.8667 155.689 25.4667 158.023 23.8C160.356 22.1333 163.489 21.0333 167.423 20.5C171.356 19.9667 176.389 19.7 182.523 19.7H187.023C193.156 19.7 198.189 19.9667 202.123 20.5C206.123 21.0333 209.256 22.1333 211.523 23.8C213.856 25.4667 215.456 27.8667 216.323 31C217.256 34.1333 217.723 38.3333 217.723 43.6V44.1C217.723 49.3667 217.256 53.6 216.323 56.8C215.456 59.9333 213.856 62.3667 211.523 64.1C209.256 65.7667 206.123 66.9 202.123 67.5C198.189 68.0333 193.156 68.3 187.023 68.3H182.523ZM262.82 19.7C269.42 19.7 274.754 19.9667 278.82 20.5C282.887 20.9667 286.02 22 288.22 23.6C290.487 25.2 291.987 27.5 292.72 30.5C293.52 33.5 293.92 37.5 293.92 42.5V62C293.92 63.9333 293.52 65.4333 292.72 66.5C291.92 67.5 290.554 68 288.62 68H280.62C278.687 68 277.32 67.5 276.52 66.5C275.72 65.4333 275.32 63.9333 275.32 62V46.6C275.32 43.5333 275.154 41.1 274.82 39.3C274.487 37.5 273.787 36.1333 272.72 35.2C271.72 34.2 270.287 33.5667 268.42 33.3C266.554 32.9667 264.12 32.8 261.12 32.8H253.42C251.487 32.8 249.987 33.2333 248.92 34.1C247.92 34.9 247.42 36.2333 247.42 38.1V62C247.42 63.9333 247.02 65.4333 246.22 66.5C245.42 67.5 244.054 68 242.12 68H234.22C232.287 68 230.887 67.4667 230.02 66.4C229.22 65.2667 228.82 63.7333 228.82 61.8V6C228.82 4.06666 229.22 2.6 230.02 1.6C230.82 0.533332 232.187 -7.15256e-07 234.12 -7.15256e-07H242.02C243.954 -7.15256e-07 245.32 0.566665 246.12 1.7C246.987 2.76666 247.42 4.26666 247.42 6.2V15.4C247.42 16.3333 247.52 17.1 247.72 17.7C247.92 18.2333 248.32 18.6667 248.92 19C249.587 19.2667 250.487 19.4667 251.62 19.6C252.754 19.6667 254.254 19.7 256.12 19.7H262.82ZM339.352 54.8C342.219 54.8 344.519 54.7 346.252 54.5C347.986 54.2333 349.319 53.7333 350.252 53C351.186 52.2 351.786 51.1 352.052 49.7C352.319 48.3 352.452 46.4333 352.452 44.1V43.6C352.452 41.2667 352.319 39.4 352.052 38C351.786 36.6 351.186 35.5333 350.252 34.8C349.319 34 347.986 33.5 346.252 33.3C344.519 33.0333 342.219 32.9 339.352 32.9H336.052C333.119 32.9 330.786 33.0333 329.052 33.3C327.386 33.5 326.086 34 325.152 34.8C324.219 35.5333 323.619 36.6 323.352 38C323.086 39.4 322.952 41.2667 322.952 43.6V44.1C322.952 46.4333 323.086 48.3 323.352 49.7C323.619 51.1 324.219 52.2 325.152 53C326.086 53.7333 327.386 54.2333 329.052 54.5C330.786 54.7 333.119 54.8 336.052 54.8H339.352ZM335.452 68.3C329.319 68.3 324.252 68.0333 320.252 67.5C316.319 66.9 313.186 65.7667 310.852 64.1C308.586 62.3667 306.986 59.9333 306.052 56.8C305.186 53.6 304.752 49.3667 304.752 44.1V43.6C304.752 38.3333 305.186 34.1333 306.052 31C306.986 27.8667 308.619 25.4667 310.952 23.8C313.286 22.1333 316.419 21.0333 320.352 20.5C324.286 19.9667 329.319 19.7 335.452 19.7H339.952C346.086 19.7 351.119 19.9667 355.052 20.5C359.052 21.0333 362.186 22.1333 364.452 23.8C366.786 25.4667 368.386 27.8667 369.252 31C370.186 34.1333 370.652 38.3333 370.652 43.6V44.1C370.652 49.3667 370.186 53.6 369.252 56.8C368.386 59.9333 366.786 62.3667 364.452 64.1C362.186 65.7667 359.052 66.9 355.052 67.5C351.119 68.0333 346.086 68.3 339.952 68.3H335.452ZM414.45 54.8C417.317 54.8 419.617 54.7 421.35 54.5C423.083 54.2333 424.417 53.7333 425.35 53C426.283 52.2 426.883 51.1 427.15 49.7C427.417 48.3 427.55 46.4333 427.55 44.1V43.6C427.55 41.2667 427.417 39.4 427.15 38C426.883 36.6 426.283 35.5333 425.35 34.8C424.417 34 423.083 33.5 421.35 33.3C419.617 33.0333 417.317 32.9 414.45 32.9H411.15C408.217 32.9 405.883 33.0333 404.15 33.3C402.483 33.5 401.183 34 400.25 34.8C399.317 35.5333 398.717 36.6 398.45 38C398.183 39.4 398.05 41.2667 398.05 43.6V44.1C398.05 46.4333 398.183 48.3 398.45 49.7C398.717 51.1 399.317 52.2 400.25 53C401.183 53.7333 402.483 54.2333 404.15 54.5C405.883 54.7 408.217 54.8 411.15 54.8H414.45ZM410.55 68.3C404.417 68.3 399.35 68.0333 395.35 67.5C391.417 66.9 388.283 65.7667 385.95 64.1C383.683 62.3667 382.083 59.9333 381.15 56.8C380.283 53.6 379.85 49.3667 379.85 44.1V43.6C379.85 38.3333 380.283 34.1333 381.15 31C382.083 27.8667 383.717 25.4667 386.05 23.8C388.383 22.1333 391.517 21.0333 395.45 20.5C399.383 19.9667 404.417 19.7 410.55 19.7H415.05C421.183 19.7 426.217 19.9667 430.15 20.5C434.15 21.0333 437.283 22.1333 439.55 23.8C441.883 25.4667 443.483 27.8667 444.35 31C445.283 34.1333 445.75 38.3333 445.75 43.6V44.1C445.75 49.3667 445.283 53.6 444.35 56.8C443.483 59.9333 441.883 62.3667 439.55 64.1C437.283 65.7667 434.15 66.9 430.15 67.5C426.217 68.0333 421.183 68.3 415.05 68.3H410.55Z" fill="black"/>
</svg>
